Movie Info

Cast: Shiva, S. P. B. Charan, Lekha Washington, John Vijay, Craig, Kalyan, Abhinayashree, Arya
Director: Pushkar-Gayathri
Producer: Sashikanth Sivaji
Music: G. V. Prakash Kumar

Sura (Shiva) comes to Chennai from Coimbatore on his way to Saudi Arabia. He is received by Marthandam (S. P. B. Charan), a veterinary doctor,who is going to marry his sister soon.Soon after the travel agent informs Sura that he can not taste liquor or women in Saudi as laws are very tough there,In his trip, he meets Saraswathi aka Saro (Lekha Washington) who attempts suicide after her parents scold her and King-Prince, a father-son duo (both roles played by
John Vijay), who run a gambling centre. How Siva, in the company of Marthandam and Saro, achieves his mission and leaves for Saudi Arabia is the remaining story.

General
Complete name                    : Va Quarter Cutting (2010) 700MB DVD Rip ~ Team MJY ~ MovieJockey.Com.mkv
Format                           : Matroska
File size                        : 720 MiB
Duration                         : 2h 9mn
Overall bit rate                 : 780 Kbps
Writing application              : Lavf52.0.0
Writing library                  : Lavf52.0.0

Video
ID                               : 1
Format                           : MPEG-4 Visual
Format profile                   : Simple@L1
Format settings, BVOP            : No
Format settings, QPel            : No
Format settings, GMC             : No warppoints
Format settings, Matrix          : Default (H.263)
Codec ID                         : V_MPEG4/ISO/ASP
Codec ID/Info                    : Advanced Simple Profile
Duration                         : 2h 9mn
Bit rate                         : 637 Kbps
Width                            : 688 pixels
Height                           : 304 pixels
Display aspect ratio             : 2.25:1
Frame rate mode                  : Constant
Frame rate                       : 29.970 fps
Color space                      : YUV
Chroma subsampling               : 4:2:0
Bit depth                        : 8 bits
Scan type                        : Progressive
Bits/(Pixel*Frame)               : 0.102
Stream size                      : 588 MiB (82%)
Writing library                  : Lavc52.48.0
Language                         : English

Audio
ID                               : 2
Format                           : MPEG Audio
Format version                   : Version 1
Format profile                   : Layer 2
Codec ID                         : A_MPEG/L2
Codec ID/Hint                    : MP2
Duration                         : 2h 9mn
Bit rate mode                    : Constant
Bit rate                         : 128 Kbps
Channel(s)                       : 2 channels
Sampling rate                    : 44.1 KHz
Bit depth                        : 16 bits
Stream size                      : 118 MiB (16%)
Language                         : English

[IMG]http://img98.imageshack.us/img98/5869/vaquartercutting2010700.jpg[/IMG]
[IMG]http://img443.imageshack.us/img443/5869/vaquartercutting2010700.jpg[/IMG]
[IMG]http://img31.imageshack.us/img31/5869/vaquartercutting2010700.jpg[/IMG]
[IMG]http://img716.imageshack.us/img716/5869/vaquartercutting2010700.jpg[/IMG]
[IMG]http://img407.imageshack.us/img407/5869/vaquartercutting2010700.jpg[/IMG]
